<?xml version="1.0" encoding="UTF-8" standalone="no"?>
<!-- Created with Inkscape (http://www.inkscape.org/) -->

<svg
   width="8.433712mm"
   height="8.4443283mm"
   viewBox="0 0 8.433712 8.4443283"
   version="1.1"
   id="svg1"
   xml:space="preserve"
   xmlns="http://www.w3.org/2000/svg"
   xmlns:svg="http://www.w3.org/2000/svg"><defs
     id="defs1" /><g
     id="layer1"
     transform="translate(-100.55814,-144.20909)"><g
       id="g330"
       transform="matrix(0.15731669,0,0,0.15731669,93.431465,129.12739)"><g
         id="g13"
         transform="matrix(1.1967252,0,0,1.1967252,-12.761186,-25.779141)"
         style="stroke:#5139c8;stroke-opacity:1"><text
           xml:space="preserve"
           style="font-style:normal;font-variant:normal;font-weight:normal;font-stretch:normal;font-size:7.00854px;font-family:sans-serif;-inkscape-font-specification:sans-serif;text-align:center;text-anchor:middle;fill:#4b8be1;fill-opacity:1;stroke:#4c8ce1;stroke-width:0.441483;stroke-dasharray:none;stroke-opacity:1"
           x="70.64846"
           y="124.84756"
           id="text9"><tspan
             id="tspan9"
             style="fill:#4b8be1;fill-opacity:1;stroke:#4c8ce1;stroke-width:0.441483;stroke-opacity:1"
             x="70.64846"
             y="124.84756" /></text><path
           style="fill:#4d8ee0;fill-opacity:1;stroke:#4c8de1;stroke-width:0.0623466;stroke-opacity:1"
           d="m 86.194975,137.88705 c -1.302573,0.011 -1.743343,-0.0589 -2.67155,-0.43552 -1.466866,-0.59535 -2.982535,-1.92367 -3.750642,-3.28789 -0.21817,-0.38722 -0.267849,-0.41208 -0.301044,-0.14683 -0.05024,0.41028 -0.396043,0.51896 -1.425912,0.44809 -0.43119,-0.0301 -0.904784,-0.0477 -1.052493,-0.0402 -0.1478,0.007 -0.27074,-0.007 -0.273519,-0.0301 -0.0035,-0.0225 -0.03718,-0.0413 -0.07341,-0.0405 -0.03755,0.002 -0.04753,0.0492 -0.02178,0.10101 0.03041,0.0605 0.01727,0.0871 -0.03304,0.0736 -0.04487,-0.007 -0.07476,-0.0564 -0.07123,-0.0927 0.0037,-0.0394 -0.03266,-0.0675 -0.08475,-0.0616 -0.05103,0.004 -0.09024,0.0394 -0.08682,0.0758 0.0079,0.0845 -0.288653,0.0518 -0.663273,-0.0736 -0.220873,-0.074 -0.332662,-0.0758 -0.557444,-0.011 -0.393034,0.11233 -1.597555,0.0834 -1.609177,-0.0394 -0.0032,-0.0301 -0.06748,-0.0481 -0.143257,-0.0338 -0.07611,0.015 -0.181971,0.015 -0.234917,-10e-4 -0.312685,-0.0902 -0.945857,-0.0609 -1.465171,0.0691 -0.637771,0.15922 -1.188686,0.22155 -1.549041,0.17499 -0.13935,-0.0187 -0.366607,-0.0394 -0.505132,-0.0425 -0.138298,-0.004 -0.676035,-0.0263 -1.194809,-0.0477 -0.518756,-0.0187 -1.083762,-0.0338 -1.255399,-0.0301 -0.382349,0.007 -1.083618,-0.16071 -1.257103,-0.30453 -0.216742,-0.17912 -0.526243,-0.0769 -0.593349,0.19602 -0.08686,0.35372 -0.348621,0.32593 -0.385465,-0.0409 -0.01577,-0.15584 -0.03981,-0.16484 -0.599591,-0.21329 -0.573432,-0.0495 -1.245283,-0.20615 -2.130194,-0.49638 -0.03642,-0.007 -0.177277,0.2745 -0.315313,0.63656 -1.072444,2.81198 -3.448024,4.29599 -6.65412,4.15682 -0.751648,-0.0301 -0.924318,-0.0627 -0.565198,-0.0983 0.208632,-0.0188 0.205403,-0.0225 -0.19669,-0.20465 -0.507704,-0.22681 -0.517708,-0.25385 -0.04224,-0.11379 0.293872,0.0868 0.423331,0.0942 0.626293,0.0338 0.165824,-0.0473 0.284896,-0.0518 0.338369,-0.0109 0.04416,0.0338 0.01426,-0.0301 -0.07123,-0.14307 -0.08464,-0.11232 -0.191959,-0.19376 -0.238335,-0.18024 -0.04746,0.015 -0.169128,-0.011 -0.272617,-0.0522 -0.10421,-0.0405 -0.229998,-0.0729 -0.281254,-0.0691 -0.35891,0.0301 -1.647274,-0.56784 -2.236463,-1.03708 -0.18107,-0.14381 -0.328005,-0.25234 -0.327029,-0.23994 0.0045,0.0481 -0.324137,-0.24146 -0.399081,-0.35223 -0.06406,-0.0942 -0.07837,-0.098 -0.07236,-0.015 0.0049,0.056 0.146634,0.23018 0.316551,0.38602 0.351925,0.32369 0.422296,0.46436 0.109418,0.21818 -1.901566,-1.49645 -3.212092,-7.1613 -1.99779,-8.63561 0.03041,-0.0338 0.03117,0.0263 0.0033,0.14381 -0.06545,0.26662 0.009,0.34058 0.09083,0.0916 0.06905,-0.21028 0.484016,-0.97699 0.637779,-1.17771 0.0549,-0.0717 0.09534,-0.18324 0.08941,-0.24708 -0.0063,-0.0634 0.01502,-0.1032 0.04766,-0.0871 0.106303,0.0526 0.193123,-0.1457 0.0932,-0.21329 -0.06654,-0.0477 -0.140928,-0.007 -0.30739,0.15771 -0.271266,0.27036 -0.222976,0.11488 0.144344,-0.46552 1.371719,-2.16705 4.062508,-3.29245 6.381477,-2.66895 0.21201,0.0571 0.446244,0.10137 0.520583,0.0976 0.09512,-0.004 0.11941,0.015 0.08145,0.0729 -0.0338,0.0503 -0.02892,0.0897 0.01765,0.11184 0.03822,0.0187 0.05722,0.0608 0.03981,0.0954 -0.05009,0.1021 0.04206,0.0616 0.196728,-0.0857 0.408277,-0.38876 1.92465,0.0972 3.420668,1.0973 0.343477,0.22981 0.467409,0.28615 0.382942,0.17537 -0.0229,-0.0301 -0.01205,-0.0762 0.0229,-0.1032 0.03968,-0.0301 0.06177,-0.004 0.05599,0.0691 -0.0045,0.0643 0.02065,0.15396 0.05459,0.19903 0.0603,0.0781 -0.03718,0.21516 -0.211111,0.29702 -0.03642,0.015 -0.04404,0.0507 -0.0169,0.0751 0.02553,0.0263 0.144457,-0.0439 0.260676,-0.15095 0.188805,-0.17461 0.199507,-0.2024 0.100753,-0.26136 -0.101605,-0.0616 -0.101386,-0.0702 0.0017,-0.10697 0.191658,-0.0702 0.374342,0.0789 0.273745,0.22306 -0.237283,0.3402 -0.237133,0.75795 4.46e-4,1.11202 0.225943,0.33682 0.370663,0.41727 0.158051,0.0905 -0.257109,-0.39946 -0.09861,-0.2467 0.245657,0.23733 0.307802,0.43269 0.590176,0.70898 0.341486,0.33419 -0.04265,-0.0661 -0.06808,-0.15733 -0.05554,-0.20351 0.02591,-0.0958 -0.253617,-0.50015 -0.304198,-0.43887 -0.01765,0.0225 -0.09278,-0.0263 -0.16725,-0.10405 -0.07443,-0.0785 -0.157563,-0.12579 -0.185125,-0.10442 -0.07769,0.0585 -0.165223,-0.20803 -0.09602,-0.29177 0.0338,-0.0409 0.05655,-0.13219 0.05065,-0.20203 -0.0075,-0.0868 0.0072,-0.10405 0.04585,-0.0544 0.0368,0.0459 0.07484,-0.0421 0.107058,-0.24521 0.02778,-0.17497 0.07784,-0.32067 0.111755,-0.32405 0.11498,-0.011 -0.0056,-0.15621 -0.124781,-0.15096 -0.244417,0.011 -0.282794,4.2e-4 -0.251101,-0.0634 0.04006,-0.08 0.3336,-0.11561 0.340585,-0.0402 0.0032,0.0263 0.07652,0.0301 0.16143,0.007 0.112656,-0.0301 0.185763,-0.0109 0.261316,0.0781 0.05719,0.0695 0.140702,0.11939 0.185161,0.11342 0.164398,-0.015 0.400745,0.27638 0.482392,0.5965 0.230636,0.9038 0.234504,0.97328 0.05291,0.94556 -0.104283,-0.015 -0.162482,4.5e-4 -0.158352,0.0432 0.0038,0.0394 0.07649,0.0619 0.162295,0.0529 0.08547,-0.007 0.1579,0.011 0.160904,0.0477 0.0038,0.0301 -0.05697,0.0691 -0.133643,0.0774 -0.131202,0.015 -0.132516,0.0187 -0.01878,0.0898 0.07559,0.0481 0.09812,0.0905 0.05839,0.12133 -0.03455,0.0263 -0.05603,0.10965 -0.04874,0.18626 0.0072,0.0766 -0.009,0.16784 -0.03567,0.20315 -0.120006,0.15846 -0.09977,0.40284 0.03041,0.3556 0.07195,-0.0263 0.107739,-0.0792 0.08468,-0.12542 -0.02253,-0.0425 -0.0072,-0.16185 0.03379,-0.26097 0.07357,-0.18138 0.07357,-0.18138 0.09861,0.0729 0.01615,0.16784 0.08381,0.32668 0.19823,0.4649 0.159365,0.19264 0.165449,0.21554 0.07368,0.28201 -0.07191,0.0522 -0.02027,0.0544 0.183286,0.007 0.18013,-0.0409 0.30123,-0.0405 0.332661,9.3e-4 0.06008,0.0789 0.29267,0.0657 0.284822,-0.015 -0.0028,-0.03 -0.03493,-0.0733 -0.07164,-0.0913 -0.09681,-0.0473 0.06883,-0.22569 0.223876,-0.23995 0.07119,-0.007 0.125608,-0.0439 0.12189,-0.0819 -0.01047,-0.11184 -0.410139,0.0187 -0.541878,0.18024 -0.285424,0.34547 -0.729216,-0.0789 -0.575082,-0.54936 0.04424,-0.13481 0.07312,-0.26473 0.06466,-0.28877 -0.112084,-0.3218 0.569359,-0.0402 0.700075,0.28914 0.04037,0.10138 0.07086,0.13369 0.06696,0.0747 -0.0024,-0.0616 -0.05832,-0.19752 -0.123391,-0.30153 -0.118437,-0.18926 -0.118437,-0.18926 0.02178,-0.0774 0.08336,0.065 0.155197,0.20615 0.177089,0.34359 0.03823,0.23656 0.118777,0.2974 0.166463,0.12579 0.01464,-0.0529 0.05238,-0.0992 0.08453,-0.10174 0.03192,-10e-4 0.03304,0.0526 0.0026,0.12505 -0.0368,0.0882 -0.0338,0.12841 0.0083,0.12467 0.03567,-0.004 0.06891,0.0447 0.07649,0.10247 0.01277,0.0965 0.0184,0.0972 0.07841,0.004 0.295861,-0.46327 0.320194,-0.48993 0.377222,-0.4146 0.04506,0.0585 0.0748,0.0473 0.136496,-0.0616 0.101241,-0.17912 0.510085,-0.40544 0.528827,-0.29328 0.0072,0.0439 0.03041,-0.015 0.05212,-0.12917 0.03079,-0.16372 0.07221,-0.21028 0.196578,-0.22193 0.125945,-0.011 0.15238,0.007 0.130563,0.10734 -0.01653,0.077 0.009,0.13068 0.07593,0.14832 0.06035,0.011 0.08363,0.004 0.05824,-0.0263 -0.06628,-0.0879 0.131653,-0.0864 0.352113,0.002 0.196051,0.0789 0.196051,0.0789 0.07694,-0.0699 -0.06561,-0.0815 -0.14074,-0.14683 -0.167363,-0.14383 -0.02704,0.004 -0.06752,-0.0338 -0.09008,-0.0819 -0.04743,-0.0954 0.276072,-0.0466 0.462245,0.0706 0.07267,0.0466 0.08302,0.0425 0.04217,-0.011 -0.37604,-0.50968 -1.569668,-0.26886 -2.125147,0.42879 -0.136985,0.17199 -0.202473,0.23807 -0.145208,0.14644 0.05745,-0.0916 0.252941,-0.34283 0.435137,-0.55788 0.182158,-0.21517 0.317003,-0.39037 0.299729,-0.38839 -0.0184,0.004 0.04795,-0.10064 0.144908,-0.22568 0.09685,-0.1258 0.301006,-0.40363 0.452924,-0.61752 0.152119,-0.21366 0.364318,-0.50074 0.471931,-0.63742 0.107775,-0.13632 0.320044,-0.42324 0.472045,-0.63675 0.673547,-0.94627 0.937329,-1.20752 1.57447,-1.55945 0.610567,-0.3372 1.138804,-0.66978 1.2411,-0.78131 0.04686,-0.0511 0.181594,-0.19038 0.299504,-0.30904 0.402595,-0.40626 0.156699,-0.36199 -0.743767,0.13405 -0.588126,0.3237 -0.546464,0.38445 -0.690419,-1.00673 -0.06921,-0.66949 -0.103941,-1.20628 -0.07672,-1.19291 0.02704,0.011 0.04604,-0.015 0.0412,-0.0627 -0.0045,-0.0481 -0.0697,-0.10819 -0.144796,-0.13329 -0.134656,-0.0473 -0.134994,-0.0477 0.0079,-0.12881 0.128536,-0.0736 0.145096,-0.0688 0.151705,0.0518 0.0079,0.12012 0.05238,0.13331 0.478103,0.13444 0.258423,7.5e-4 0.817013,0.015 1.241222,0.0301 0.424233,0.015 0.811144,0.007 0.859668,-0.015 0.120541,-0.0601 0.11644,0.004 -0.01727,0.27562 -0.06275,0.12655 -0.292858,0.62737 -0.51167,1.11312 -0.218845,0.48571 -0.545055,1.20376 -0.724965,1.59583 -0.712918,1.55302 -0.70531,2.09461 0.06552,4.65121 0.308817,1.02419 0.326879,1.05289 0.774678,1.22585 0.48568,0.18737 1.721935,0.629 2.091006,0.74632 0.241451,0.0774 0.318655,0.14682 0.612196,0.59119 0.700433,1.04811 2.053103,2.52502 3.380306,3.69097 0.474197,0.41655 0.291918,0.20202 -0.393589,-0.46368 -1.006812,-0.97747 -1.381339,-1.39024 -1.408743,-1.55245 -0.218658,-1.29464 -0.265672,-1.50443 -0.298528,-1.33204 -0.04431,0.23244 0.09624,1.10095 0.20574,1.26527 0.376039,0.56642 -0.936776,-1.01135 -1.406708,-1.69083 -0.233867,-0.33833 -0.233867,-0.33833 0.305436,-0.16297 0.296726,0.0965 0.632937,0.2054 0.74733,0.24258 0.324514,0.10478 0.454791,0.0695 0.477938,-0.13068 0.132629,-1.14142 0.751404,-2.46151 1.841779,-3.92946 0.65619,-0.88334 0.631519,-0.80414 0.256809,-0.82427 -0.164585,-0.007 -0.386134,-0.0421 -0.492381,-0.0747 -0.106229,-0.0301 -0.378446,-0.0789 -0.604651,-0.10296 -0.436948,-0.047 -0.573193,-0.10027 -0.585442,-0.23055 -0.01205,-0.1258 0.269689,-0.49748 0.347682,-0.45902 0.03905,0.0187 0.04893,0.007 0.02328,-0.0263 -0.0828,-0.10928 0.346218,-0.50246 0.53206,-0.48734 0.09083,0.007 0.603207,0.0601 1.139014,0.11683 0.97441,0.1032 0.97441,0.1032 1.514944,-0.5351 0.297288,-0.35148 0.75674,-0.86667 1.020838,-1.14544 0.698916,-0.73776 0.968157,-1.05574 0.792191,-0.93561 -0.158125,0.10818 -0.550695,0.13667 -0.559561,0.0409 -0.0028,-0.0301 0.04303,-0.0661 0.102323,-0.0758 0.237358,-0.0398 -0.487279,-0.0593 -0.88053,-0.0225 -0.435227,0.0394 -0.886632,-0.0225 -0.840489,-0.11719 0.01426,-0.0263 -0.01915,-0.0661 -0.0745,-0.0826 -0.152005,-0.0428 -0.196915,-0.0225 -0.08536,0.0301 0.05434,0.0263 0.06891,0.0533 0.03041,0.0601 -0.0368,0.004 -0.122752,-0.0457 -0.191245,-0.10782 -0.0686,-0.0619 -0.171719,-0.10661 -0.226805,-0.10369 -0.05689,0.007 -0.206117,-0.0709 -0.331047,-0.17236 -0.125457,-0.10028 -0.203977,-0.14982 -0.17525,-0.10855 0.108895,0.14946 -0.0368,0.0733 -0.319932,-0.16748 -0.442854,-0.37692 -0.101313,-0.33908 0.365706,0.0409 0.415134,0.3372 0.489012,0.36123 1.550975,0.49856 0.872336,0.11306 1.016614,0.11902 0.860305,0.0394 -0.135484,-0.0702 -0.05403,-0.0722 0.365818,-0.007 0.97571,0.14681 2.03788,0.004 3.850831,-0.51813 0.917738,-0.26437 1.751683,-0.49248 1.853174,-0.50747 0.327405,-0.0484 0.162595,-0.45893 -0.197291,-0.4919 -0.130339,-0.0109 -0.292783,-0.10697 -0.635395,-0.37364 -0.131615,-0.10332 0.329132,0.13895 0.478058,0.25085 0.231387,0.17348 0.169128,0.015 -0.06801,-0.17312 -0.114335,-0.0897 -0.440661,-0.50839 -0.725032,-0.92934 -0.952282,-1.4089 -1.493706,-2.07463 -1.932133,-2.37557 -0.638925,-0.43859 -1.683738,-1.05345 -2.271516,-1.33737 -0.617922,-0.30115 -0.733176,-0.39627 -0.170855,-0.14982 0.616702,0.27224 1.666342,0.87809 2.573221,1.47675 0.262741,0.17537 0.42002,0.2208 0.413684,0.1217 -0.0029,-0.0225 0.08385,-0.16372 0.189857,-0.30679 0.23454,-0.31579 0.240324,-0.27674 -0.06174,-0.42191 -0.595186,-0.28952 -2.118429,-1.39238 -2.126236,-1.54454 -0.006,-0.12467 -0.122716,-0.24069 -0.190007,-0.18963 -0.03117,0.0225 -0.127785,-0.0109 -0.215428,-0.0799 -0.08761,-0.0676 -0.187829,-0.10101 -0.222375,-0.0751 -0.06609,0.0495 -0.181896,-0.11598 -0.127184,-0.18249 0.03154,-0.0394 1.050829,0.38445 1.495354,0.62206 0.135971,0.0729 0.244117,0.10856 0.241976,0.0758 -0.0021,-0.0301 -0.04829,-0.0695 -0.101691,-0.0837 -0.121588,-0.0338 -0.154407,-0.3312 -0.04123,-0.38759 0.124818,-0.062 0.15009,-0.21667 0.05918,-0.36349 -0.04386,-0.0709 0.144833,0.0616 0.41955,0.29327 0.274533,0.23206 0.478798,0.43401 0.454232,0.44753 -0.06917,0.0394 0.234992,0.36348 0.317942,0.33907 0.03961,-0.0109 0.07443,0.0225 0.07465,0.0857 8.3e-4,0.0585 0.02967,0.098 0.06305,0.0879 0.03268,-0.007 0.0789,0.0187 0.100267,0.065 0.02666,0.0578 0.01132,0.0702 -0.05077,0.0417 -0.05313,-0.0225 -0.06831,-0.015 -0.03266,0.007 0.03117,0.0263 0.08039,0.0503 0.111487,0.0443 0.0493,-0.004 0.442543,0.368 1.513541,1.43219 0.489559,0.48662 0.47882,0.4669 0.956521,1.79612 0.367509,1.02321 0.459338,1.43894 0.375282,1.7 -0.03342,0.10441 -0.04653,0.0852 -0.06759,-0.0995 -0.158651,-1.3908 -1.426519,-3.6108 -2.029648,-3.55368 -0.339383,0.0301 -0.607863,0.66899 -0.330934,0.7851 0.116745,0.047 0.139501,0.0852 0.08757,0.12354 -0.0561,0.0425 -0.05452,0.0713 0.0049,0.12097 0.04359,0.0338 0.06797,0.10514 0.05452,0.15396 -0.02816,0.10137 0.569355,1.09711 0.653649,1.08912 0.07492,-0.007 0.06016,-0.11379 -0.02178,-0.15472 -0.03605,-0.0187 -0.100972,-0.092 -0.146222,-0.16222 -0.05373,-0.0868 -0.02328,-0.0729 0.09377,0.0394 0.197329,0.19489 0.322072,0.49244 0.160417,0.3825 -0.05174,-0.0338 0.06244,0.18624 0.254669,0.4918 0.361012,0.57512 0.96955,1.21777 1.138619,1.20177 0.05246,-0.004 0.247647,0.10137 0.430402,0.24032 0.399543,0.29515 0.426977,0.28652 -0.815466,0.2621 -1.337367,-0.0263 -1.318824,-0.0338 -2.312765,1.039 -0.826393,0.89243 -0.826393,0.89243 -0.488591,0.89224 0.351174,-2.2e-4 0.549881,0.0695 0.289178,0.10174 -0.247459,0.0301 -0.955,0.19639 -1.179827,0.27637 -0.07206,0.0263 -0.193687,0.0522 -0.270628,0.0593 -0.07686,0.007 -0.137323,0.0338 -0.134619,0.0684 0.0038,0.0263 -0.04397,0.0605 -0.103188,0.0661 -0.05915,0.004 -0.181445,0.0575 -0.270778,0.1161 -0.142542,0.0924 -0.163196,0.0938 -0.171044,0.011 -0.0049,-0.0529 -0.03718,-0.0717 -0.07254,-0.0466 -0.03567,0.0263 -0.0855,0.0225 -0.110696,-0.011 -0.112047,-0.14683 -0.947786,0.002 -0.932263,0.16673 0.0169,0.18061 0.616451,0.26811 0.813446,0.11902 0.03864,-0.0263 0.07243,-0.0225 0.07537,0.015 0.0045,0.0481 0.04123,0.0432 0.120384,-0.007 0.14393,-0.0958 0.200858,-0.10174 0.158989,-0.0187 -0.02027,0.0405 0.08889,0.0549 0.285309,0.0338 0.174762,-0.015 0.304875,-0.004 0.289216,0.0263 -0.01577,0.0301 -0.157525,0.0609 -0.315764,0.0654 -0.20713,0.004 -0.277236,0.0301 -0.250914,0.0812 0.02742,0.0585 -0.07004,0.0702 -0.43795,0.0601 -0.334914,-0.007 -0.505115,0.011 -0.579252,0.0668 -0.05767,0.0439 -0.1567,0.0672 -0.219859,0.0499 -0.10875,-0.0263 -0.108518,-0.0225 0.01205,0.0875 0.140214,0.13256 0.129737,0.1457 -0.243367,0.31656 -0.386685,0.17687 -0.382821,0.17874 -0.714075,-0.30867 -0.36702,-0.54095 -0.409922,-0.53468 -0.147198,0.0225 0.108712,0.22943 0.217455,0.46592 0.241789,0.52466 0.02929,0.0706 0.06617,0.0852 0.108858,0.0428 0.06162,-0.0612 0.402664,-0.0338 1.679052,0.12048 0.773146,0.0951 0.793683,0.14833 0.326541,0.84508 -0.364579,0.54377 -0.390077,0.55636 -0.938178,0.46473 -0.192635,-0.0301 -0.346367,-0.0301 -0.363303,0.004 -0.01577,0.0301 0.03567,0.0537 0.115017,0.0461 0.136497,-0.007 0.138299,-0.007 0.03718,0.086 -0.05854,0.054 -0.08539,0.12578 -0.05922,0.15996 0.07191,0.095 0.166237,0.0634 0.115577,-0.0394 -0.02478,-0.0484 -0.02065,-0.0909 0.0083,-0.0931 0.109309,-0.007 1.781329,2.87258 1.714903,2.95291 -0.08437,0.10246 -0.251215,-0.11184 -0.744721,-0.97222 -0.327029,-0.56732 -0.586831,-0.95412 -0.637896,-0.94932 -0.133117,0.011 -0.112498,0.0589 0.485549,1.08886 0.414732,0.71406 0.541925,0.98033 0.488254,1.02198 -0.131165,0.10174 -0.179756,0.0416 -0.734807,-0.90866 -0.572555,-0.98041 -0.600763,-1.02216 -0.649782,-0.96287 -0.01615,0.0187 0.214189,0.47486 0.512627,1.01086 0.298415,0.53611 0.54619,1.00951 0.550584,1.05217 0.01132,0.11525 0.207054,0.0432 0.660467,-0.24258 0.05655,-0.0338 0.114457,-0.0654 0.129174,-0.0672 0.01502,-0.001 0.119519,0.18626 0.233528,0.41565 0.113775,0.22981 0.231838,0.43033 0.261728,0.4458 0.05753,0.0263 1.154271,-0.37854 1.21983,-0.45245 0.02141,-0.0225 -0.03943,-1.04994 -0.133417,-2.28101 -0.192448,-2.51334 -0.18734,-2.61348 0.137811,-2.73302 1.691399,-0.62149 3.24507,-0.77736 3.945732,-0.39567 0.330934,0.17987 1.234813,0.91796 1.463507,1.19404 0.0926,0.11159 -0.08445,-0.011 -0.393703,-0.27599 -0.309118,-0.26323 -0.536051,-0.43916 -0.504144,-0.39076 0.08738,0.13443 0.103151,0.24071 0.03605,0.24708 -0.03192,0.001 -0.0413,0.0301 -0.01765,0.0619 0.02366,0.0301 0.08742,0.0301 0.139915,0.007 0.06518,-0.0301 0.08486,-0.0225 0.05978,0.0263 -0.02103,0.0425 -0.0075,0.074 0.02929,0.0706 0.0368,-0.004 0.104356,0.0627 0.152419,0.14195 0.04705,0.0815 0.125344,0.14456 0.174123,0.14006 0.09537,-0.007 0.342912,0.20803 0.356355,0.31242 0.0063,0.0338 0.09174,0.12842 0.193912,0.20841 0.10225,0.0792 0.243141,0.20616 0.312872,0.282 0.08415,0.0913 0.111974,0.1021 0.08396,0.0301 -0.06019,-0.14494 -0.0072,-0.13669 0.0938,0.011 0.05828,0.0879 0.06158,0.11452 0.01205,0.089 -0.09793,-0.0481 -0.07969,0.0416 0.03304,0.16448 0.05144,0.0533 0.111633,0.0751 0.132854,0.0507 0.02328,-0.0263 0.03785,-0.0187 0.03455,0.015 -0.0139,0.12917 0.02479,0.22305 0.07578,0.18437 0.02854,-0.0187 0.0733,0.002 0.09894,0.0549 0.07037,0.14157 0.06162,0.18887 -0.01615,0.0897 -0.114603,-0.14494 -0.06298,0.0225 0.05501,0.18288 0.07762,0.10368 0.09508,0.11074 0.05873,0.0263 -0.121065,-0.28689 0.100303,0.0225 0.314149,0.44003 0.88451,1.72673 1.136926,4.00312 0.672135,6.06139 -0.148927,0.65958 -0.364129,1.23666 -0.464698,1.2462 -0.02778,0.004 -0.07382,0.0762 -0.104198,0.16259 -0.03003,0.0868 -0.108262,0.23244 -0.173859,0.32369 -0.06538,0.0916 -0.111755,0.18662 -0.103784,0.21066 0.0097,0.0225 -0.0072,0.0634 -0.03493,0.0875 -0.02892,0.0225 -0.106571,0.14043 -0.173748,0.2591 -0.06786,0.11866 -0.154033,0.19977 -0.193048,0.18099 -0.04386,-0.0187 -0.04968,-0.007 -0.01539,0.0394 0.278026,0.36687 -2.344585,2.16634 -3.568061,2.44805 -0.240625,0.0556 -0.288877,0.083 -0.193423,0.11001 0.163645,0.0447 -0.484205,0.10247 -1.275041,0.11038 z m -2.317864,-1.97194 c -1.214119,-0.45154 -2.377256,-1.39106 -2.944373,-2.37808 -0.0751,-0.13068 -0.150803,-0.25797 -0.168451,-0.28313 -0.0169,-0.0263 -0.0068,-0.0432 0.02065,-0.0394 0.03004,0.002 0.09283,-0.0109 0.142091,-0.0338 0.248286,-0.11719 0.886602,-0.23394 0.97357,-0.17724 0.344753,0.22231 0.489928,0.39759 0.397249,0.47978 -0.225342,0.19978 1.066428,1.23543 1.989333,1.59456 0.709112,0.27599 0.849367,0.23206 0.803458,-0.25422 -0.02404,-0.25497 -0.01727,-0.26773 0.160979,-0.28426 0.228233,-0.0187 0.343927,0.52458 0.141942,0.67118 -0.08938,0.0646 -0.08974,0.0812 -0.0034,0.12767 0.160041,0.0868 0.955113,0.007 0.982428,-0.0965 0.0083,-0.0301 0.04029,-0.0608 0.07029,-0.0639 0.03003,-0.002 0.04244,0.0398 0.02704,0.0942 -0.02892,0.10332 -0.03567,0.10368 0.42463,-0.0394 0.287789,-0.0897 0.212912,-1.15274 -0.08216,-1.16693 -0.108445,-0.004 -0.07796,-0.0492 0.166612,-0.24108 0.164773,-0.12879 0.415901,-0.38482 0.557928,-0.56889 0.14213,-0.18399 0.337131,-0.38523 0.433474,-0.44712 0.16909,-0.10891 0.212537,-0.23131 0.11156,-0.31505 -0.02591,-0.0225 -0.0946,0.0263 -0.151254,0.11343 -0.05648,0.0845 -0.087,0.11524 -0.06827,0.0679 0.01916,-0.0473 -0.0199,-0.13518 -0.08592,-0.19563 -0.06631,-0.0608 -0.100267,-0.13293 -0.0754,-0.16072 0.02441,-0.0263 0.06098,-0.015 0.08066,0.0225 0.0199,0.0409 0.05888,0.0571 0.08922,0.0301 0.02854,-0.0187 0.04123,0.0109 0.02816,0.0751 -0.01916,0.089 -5.07e-4,0.0799 0.08817,-0.0402 0.0623,-0.0855 0.16819,-0.40484 0.235443,-0.71005 0.0671,-0.30491 0.166538,-0.60885 0.220573,-0.67493 0.106984,-0.13068 0.109126,-0.40349 0.0038,-0.45558 -0.03642,-0.0187 -0.06154,0.0301 -0.05666,0.1116 0.01727,0.27074 -0.05558,0.42413 -0.111682,0.23356 -0.02629,-0.09 -0.02366,-0.15246 0.0038,-0.13894 0.09854,0.0481 0.06008,-0.32218 -0.04766,-0.46566 -0.07049,-0.0935 -0.07964,-0.12955 -0.02629,-0.10333 0.300369,0.14646 -0.184261,-1.42543 -0.651411,-2.11794 -0.192484,-0.28575 -0.314749,-0.50148 -0.27134,-0.48 0.05524,0.0263 0.0505,0.004 -0.01577,-0.0841 -0.05193,-0.0665 -0.122266,-0.12097 -0.156174,-0.1206 -0.07533,0.004 -0.798076,-0.54336 -0.767428,-0.58034 0.0101,-0.0109 0.184337,0.0976 0.38389,0.24858 0.406327,0.30641 0.443961,0.31655 0.518909,0.13781 0.133566,-0.31918 -0.148739,-0.55868 -0.507472,-0.43153 -0.228721,0.0812 -0.570717,-0.10283 -0.357896,-0.19377 0.113215,-0.0477 0.101204,-0.0506 -0.05497,-0.0109 -0.225116,0.054 -0.245282,0.0187 -0.120091,-0.19978 0.132479,-0.23431 -0.05295,-0.30979 -0.204726,-0.0837 -0.08073,0.12012 -0.136384,0.15096 -0.20837,0.11452 -0.05422,-0.0263 -0.125794,-0.0473 -0.160078,-0.0425 -0.0323,9.7e-4 0.02028,0.0413 0.119482,0.0841 0.09948,0.0425 0.20668,0.0574 0.238109,0.0338 0.03117,-0.0225 0.06098,4.1e-4 0.06602,0.0519 0.0049,0.0522 0.07018,0.12011 0.144795,0.15132 0.129288,0.0537 0.130902,0.0639 0.04029,0.18512 -0.111073,0.14908 -0.229284,0.11866 -0.201573,-0.0518 0.02553,-0.15621 -0.1481,-0.27937 -0.238672,-0.17047 -0.03567,0.0432 -0.09253,0.0807 -0.126546,0.0845 -0.03266,8e-4 -0.01277,-0.0394 0.05106,-0.0938 0.114493,-0.10211 -0.08073,-0.21592 -0.329657,-0.19226 -0.04382,0.004 -0.116817,-0.0518 -0.160417,-0.1273 -0.08171,-0.13331 -0.08171,-0.13331 -0.05423,0.0187 0.02253,0.12617 -0.0038,0.16034 -0.141942,0.19001 -0.193048,0.0409 -0.220423,0.12616 -0.03905,0.12317 0.06617,-0.001 0.148062,-0.0421 0.18152,-0.0916 0.08126,-0.11938 0.307728,-0.0758 0.320871,0.0619 0.01047,0.11269 -0.135972,0.22981 -0.276598,0.22079 -0.04311,-0.004 -0.07585,0.0225 -0.07254,0.0598 0.0027,0.0338 -0.04269,0.0699 -0.102397,0.0758 -0.05903,0.004 0.01502,0.0605 0.165936,0.12097 0.274233,0.11038 0.274233,0.11038 0.293496,0.50295 0.02103,0.43499 0.187792,0.59379 0.34573,0.32856 0.04957,-0.0834 0.0742,-0.0938 0.07987,-0.0338 0.0052,0.0544 0.05261,0.0263 0.130338,-0.0733 0.122303,-0.15884 0.122303,-0.15884 0.366983,0.0736 0.403956,0.38288 0.623518,0.73194 0.435022,0.69136 -0.128912,-0.0263 -0.13676,-0.0187 -0.06084,0.0553 0.07198,0.0725 0.06959,0.0961 -0.01577,0.13893 -0.08982,0.0447 -0.07709,0.0695 0.09418,0.18512 0.166199,0.11233 0.183998,0.14457 0.110514,0.20465 -0.134131,0.11002 -0.196465,0.0954 -0.17446,-0.0394 0.01502,-0.0905 -0.0101,-0.11756 -0.09624,-0.10283 -0.216669,0.0338 -0.08284,0.36575 0.140401,0.34472 0.08183,-0.007 0.150578,0.007 0.15332,0.0338 0.0021,0.0263 0.08126,0.0405 0.175023,0.0301 0.255908,-0.0263 0.289929,0.22906 0.06474,0.48977 -0.09422,0.10929 -0.168941,0.22681 -0.166012,0.26136 0.0045,0.0301 0.09482,-0.0413 0.203225,-0.16824 0.197441,-0.23131 0.197441,-0.23131 0.229358,0.10479 0.03718,0.41539 -0.0094,0.52758 -0.205176,0.4853 -0.11885,-0.0263 -0.13646,-0.0109 -0.09606,0.0688 0.02929,0.0597 0.0229,0.0864 -0.01615,0.0675 -0.100449,-0.0492 -0.290642,0.0519 -0.324176,0.17273 -0.02141,0.0758 0.05392,0.16973 0.249262,0.31467 0.279189,0.20616 0.322034,0.37657 0.08479,0.33797 -0.06552,-0.011 -0.117462,0.007 -0.114225,0.0425 0.0038,0.0301 0.06264,0.0721 0.131539,0.0856 0.142731,0.0225 0.141078,0.0187 0.103115,0.15697 -0.0199,0.0709 -0.07953,0.0938 -0.211673,0.08 -0.115917,-0.011 -0.18167,0.007 -0.177428,0.0507 0.0038,0.0394 0.04889,0.065 0.1,0.0605 0.130076,-0.011 0.129775,0.13442 -9.61e-4,0.32218 -0.110173,0.15846 -0.110173,0.15846 -0.230862,0.0421 -0.228645,-0.22006 -0.754123,-0.0225 -0.572531,0.2144 0.04777,0.0646 0.06233,0.11793 0.03079,0.12097 -0.03117,0.001 -0.07142,-0.0225 -0.08666,-0.0627 -0.02403,-0.0567 -0.576016,0.13705 -0.713192,0.24971 -0.05119,0.0421 0.165297,0.12542 0.512811,0.1915 0.338782,0.0665 0.343062,0.0702 0.203788,0.16561 -0.176602,0.12084 -0.237997,0.1318 -0.226431,0.0398 0.0037,-0.0394 -0.03117,-0.0814 -0.08028,-0.0946 -0.04942,-0.0109 -0.07175,0.002 -0.04802,0.0301 0.06545,0.0868 -0.0184,0.19678 -0.19793,0.26023 -0.14994,0.0529 -0.171606,0.0402 -0.221436,-0.13218 -0.03117,-0.10368 -0.07488,-0.17423 -0.09722,-0.1577 -0.02178,0.015 -0.0843,-0.0188 -0.137736,-0.0845 -0.20037,-0.22906 -0.402348,-0.0909 -0.365744,0.25046 0.01239,0.10552 0.0013,0.15208 -0.02215,0.10284 -0.05666,-0.11902 -0.747488,-0.68061 -0.827556,-0.6731 -0.118887,0.0109 -0.218246,0.46481 -0.124406,0.56845 0.06662,0.0747 0.0579,0.074 -0.04191,-0.004 -0.107581,-0.0778 -0.117268,-0.12133 -0.06946,-0.25947 0.0323,-0.0938 0.03154,-0.16223 -0.0019,-0.15846 -0.03192,0.001 -0.04746,-0.0301 -0.03605,-0.077 0.02778,-0.10064 -0.257785,-0.36874 -0.305099,-0.28576 -0.01727,0.0301 -0.121284,0.0653 -0.229022,0.0747 -0.167626,0.011 -0.185913,0.0301 -0.12741,0.11976 0.10819,0.16296 0.01132,0.12691 -0.190869,-0.0717 -0.285424,-0.27901 -0.502011,-0.58625 -0.510382,-0.72364 -0.0083,-0.12467 -0.0083,-0.12467 0.04412,-0.004 0.105438,0.24294 0.406719,0.61912 0.49007,0.61112 0.07184,-0.007 0.296275,-0.12691 0.361914,-0.19375 0.02629,-0.0263 -0.500637,-0.66984 -0.546258,-0.66717 -0.100449,0.004 -0.922661,-0.0428 -1.054674,-0.063 -0.08948,-0.0151 -0.147462,0.004 -0.143556,0.0458 0.0038,0.0338 0.03981,0.0605 0.08284,0.0454 0.04251,-0.011 0.08208,0.0263 0.08765,0.0958 0.01132,0.11938 -0.05061,0.15133 -0.41773,0.21666 -0.212385,0.0394 -0.296011,-0.31655 -0.112947,-0.47903 0.05016,-0.0447 0.087,-0.12881 0.08164,-0.18738 -0.0075,-0.0767 0.03266,-0.10478 0.143969,-0.10064 0.08468,0.004 0.159966,-0.0225 0.166874,-0.0582 0.0072,-0.0338 -0.05133,-0.0668 -0.129024,-0.0706 -0.17461,-0.007 -0.186139,-0.083 -0.0442,-0.3034 0.132855,-0.20654 0.125419,-0.33383 -0.03642,-0.60387 -0.121284,-0.20277 -0.121029,-0.21215 0.01878,-0.46127 0.163345,-0.29064 0.165448,-0.374 0.0184,-0.6473 -0.0911,-0.16935 -0.09429,-0.21028 -0.02328,-0.29627 0.06109,-0.0736 0.0614,-0.10928 0.0045,-0.13743 -0.0567,-0.0263 -0.0612,-0.0492 -0.01168,-0.0882 0.08802,-0.0665 0.0083,-0.1641 -0.09328,-0.11342 -0.05002,0.0225 -0.101946,-0.015 -0.135369,-0.11525 -0.03041,-0.0853 -0.08389,-0.15246 -0.119446,-0.14908 -0.03605,0.004 -0.04856,-0.0263 -0.02892,-0.0657 0.02441,-0.0495 -0.0041,-0.0466 -0.09283,0.011 -0.07052,0.0466 -0.139387,0.12467 -0.15268,0.17236 -0.03003,0.10698 -0.196616,0.19864 -0.184712,0.10211 0.01653,-0.13518 -0.144983,-0.10588 -0.204464,0.0338 -0.05114,0.12133 -0.04186,0.15697 0.05434,0.21442 0.103188,0.0623 0.110623,0.10283 0.0688,0.39676 -0.02553,0.18025 -0.01727,0.46221 0.01765,0.62634 0.03567,0.1641 0.0415,0.31543 0.01352,0.33683 -0.02816,0.0187 -0.05332,0.22381 -0.05591,0.45047 -0.0038,0.31279 -0.03756,0.45083 -0.139013,0.57388 -0.133905,0.16222 -0.134019,0.16222 -0.117305,0.0187 0.0094,-0.0774 -0.02704,-0.36161 -0.08178,-0.63201 -0.09861,-0.49154 -0.09861,-0.49154 -0.06981,0.007 0.02967,0.49818 0.02967,0.49818 -0.04915,0.16109 -0.192973,-0.8287 0.06826,-3.26128 0.335966,-3.12891 0.03117,0.015 0.01426,0.17273 -0.03642,0.34997 -0.127823,0.44295 -0.102737,0.48343 0.04109,0.0661 0.118473,-0.34359 0.251739,-0.39973 0.420278,-0.17724 0.05711,0.0758 0.224778,0.0589 0.216967,-0.0187 -0.0038,-0.0301 -0.02816,-0.0544 -0.05666,-0.0425 -0.02666,0.007 -0.182045,-0.10283 -0.344227,-0.24934 -0.161054,-0.14833 -0.317003,-0.26736 -0.346405,-0.26511 -0.13214,0.011 -0.476037,1.19303 -0.491565,1.68701 -0.006,0.1885 0.01765,0.12617 0.07742,-0.20504 0.09118,-0.50561 0.254106,-1.08138 0.337619,-1.19283 0.02816,-0.0338 0.003,0.0924 -0.05369,0.28689 -0.259176,0.88049 -0.333789,1.64735 -0.258312,2.65476 0.04881,0.65294 0.04881,0.65294 -0.0614,-0.11938 -0.110404,-0.77234 -0.110404,-0.77234 -0.04311,0.074 0.101204,1.27034 0.639954,2.90417 0.948921,2.87849 0.05641,-0.007 0.0964,0.0473 0.101459,0.12804 0.0034,0.0751 0.02892,0.12012 0.05382,0.10137 0.02441,-0.0187 0.101045,0.0529 0.16864,0.15921 0.06766,0.10697 0.262367,0.35898 0.432622,0.56019 0.170255,0.20164 0.293796,0.40104 0.274345,0.4438 -0.01915,0.0425 -0.0139,0.054 0.01239,0.0225 0.02515,-0.0263 0.246558,0.10965 0.492793,0.3019 0.523843,0.41561 1.118003,0.7512 1.678538,0.94786 0.621712,0.21817 0.652139,0.1592 0.03642,-0.0702 z m -31.899027,-3.49739 c -0.400626,-0.60355 -0.323838,-3.19782 0.116026,-3.91992 0.06864,-0.11306 0.12373,-0.2268 0.120383,-0.25271 -0.01205,-0.12466 0.68746,-1.10163 0.795767,-1.11184 0.0323,-9.7e-4 0.121211,-0.074 0.195075,-0.15808 0.103114,-0.1172 0.126847,-0.12656 0.103005,-0.0409 -0.03266,0.11646 0.222864,0.14157 0.314149,0.0301 0.02328,-0.0263 0.06064,-0.054 0.0831,-0.0575 0.02328,-0.004 0.120761,-0.0582 0.218019,-0.12169 0.0973,-0.0634 0.278552,-0.15922 0.402687,-0.21293 0.124067,-0.0537 0.223201,-0.1224 0.220385,-0.15282 -0.0068,-0.0713 -0.319632,0.0187 -0.697339,0.20203 -0.162783,0.0789 -0.309531,0.1318 -0.326279,0.11792 -0.01727,-0.011 0.04044,-0.0612 0.127373,-0.10441 0.08685,-0.0439 0.23165,-0.11829 0.321772,-0.1656 0.09012,-0.0477 0.314448,-0.13443 0.498328,-0.19339 0.192747,-0.0616 0.324738,-0.13668 0.312008,-0.1776 -0.06786,-0.2148 0.102701,-0.0394 0.183885,0.19112 0.05328,0.14984 0.112351,0.27074 0.131015,0.26962 0.01916,-0.004 0.01615,-0.0507 -0.0068,-0.10928 -0.1849,-0.47796 -0.169016,-0.54193 0.06383,-0.25723 0.19808,0.24258 0.244231,0.26886 0.386333,0.21742 0.153433,-0.0537 0.150954,-0.0439 -0.06185,0.24934 -0.121776,0.16785 -0.29421,0.43033 -0.383099,0.58368 -0.177502,0.30679 -0.328756,0.007 -0.322861,-0.63997 0.003,-0.32519 0.0063,-0.32594 -0.335703,0.0187 -0.578949,0.58609 -0.853212,1.18059 -0.641441,1.3905 0.780221,0.7734 0.815653,0.78897 0.940795,0.41384 0.13646,-0.40888 0.517771,-0.19939 0.442118,0.24596 -0.05088,0.30341 0.02027,0.4657 0.175249,0.39977 0.07398,-0.0301 0.130414,-0.015 0.162971,0.0484 0.03491,0.071 0.02178,0.0909 -0.04818,0.071 -0.144194,-0.0394 -0.109832,0.0549 0.06914,0.19376 0.119933,0.0931 0.201798,0.10819 0.344302,0.0657 0.307954,-0.0927 0.427676,-0.002 0.286362,0.2178 -0.06372,0.0988 -0.0872,0.17611 -0.05216,0.1731 0.03342,-4.9e-4 0.1,-0.071 0.145509,-0.15133 0.04503,-0.0796 0.09237,-0.13331 0.104393,-0.11939 0.01132,0.015 0.121661,0.1228 0.243704,0.24145 0.270853,0.26437 0.281292,0.31993 0.05866,0.31468 -0.09492,-0.002 -0.123354,0.007 -0.06275,0.0187 0.101386,0.0187 0.187077,0.21366 0.242428,0.54539 0.01277,0.074 0.04078,0.12011 0.06286,0.10368 0.02141,-0.015 0.01427,-0.16222 -0.01765,-0.32294 -0.07694,-0.38361 -0.006,-0.31805 0.111681,0.10296 0.09245,0.33157 0.09245,0.33157 0.04071,-0.0225 -0.0614,-0.42222 -0.07353,-0.41246 0.164321,-0.13067 0.155798,0.18511 0.181332,0.25159 0.136572,0.35861 -0.0713,0.17009 -0.06462,0.22192 0.02103,0.15733 0.04667,-0.0338 0.05835,-0.015 0.03642,0.063 -0.03864,0.13818 0.227971,0.51395 0.355867,0.50187 0.09906,-0.007 0.104429,0.002 0.06466,0.14494 -0.03977,0.14307 -0.205177,0.1487 -0.169466,0.004 0.02253,-0.0909 0.0139,-0.0961 -0.0478,-0.0263 -0.08982,0.10101 -0.11397,0.34059 -0.03304,0.33232 0.03079,-0.002 0.101046,0.007 0.155647,0.0225 0.06932,0.0187 0.106607,-0.0225 0.12418,-0.13668 0.02666,-0.17649 0.1009,-0.22118 0.164434,-0.0995 0.02103,0.0417 0.01083,-0.0564 -0.02403,-0.21667 -0.05243,-0.24332 -0.04604,-0.29289 0.03864,-0.30078 0.09249,-0.007 0.138638,0.0582 0.12696,0.19602 -0.0026,0.0301 0.02065,0.0301 0.05099,0.007 0.07701,-0.0582 0.227369,0.10856 0.180093,0.20389 -0.02178,0.0439 -0.01428,0.0605 0.01727,0.0338 0.03117,-0.0225 0.09669,-0.0225 0.146786,0.002 0.114116,0.0564 0.0038,0.25047 -0.150691,0.26548 -0.0697,0.007 -0.07634,0.0263 -0.02629,0.0684 0.09159,0.074 0.393551,-0.0263 0.426464,-0.14532 0.01352,-0.0484 0.04634,-0.077 0.07364,-0.0635 0.02704,0.011 0.07416,-0.0477 0.104198,-0.13556 0.03154,-0.0924 0.107617,-0.16447 0.179417,-0.17198 0.06748,-0.004 0.208219,-0.0744 0.31137,-0.1517 0.102968,-0.077 0.206904,-0.1303 0.230787,-0.11829 0.02404,0.011 0.03785,-0.0758 0.03117,-0.19413 -0.0075,-0.12767 -0.04195,-0.21254 -0.08498,-0.2084 -0.05587,0.007 -0.05697,-0.011 -0.0068,-0.0729 0.0507,-0.0612 0.09406,-0.0605 0.185238,0.004 0.131314,0.0942 0.468917,0.14269 0.461862,0.0657 -0.0035,-0.0225 -0.04003,-0.0609 -0.08592,-0.071 -0.06493,-0.015 -0.0647,-0.0338 -0.0052,-0.089 0.04191,-0.0338 0.06793,-0.19451 0.05801,-0.35298 -0.01047,-0.17011 0.01352,-0.30378 0.05918,-0.32594 0.136647,-0.0679 0.06482,-0.23018 -0.209421,-0.47287 -0.147424,-0.1303 -0.366458,-0.34058 -0.486904,-0.46706 -0.120651,-0.12617 -0.365782,-0.35636 -0.544827,-0.51203 -0.343213,-0.29741 -0.697425,-0.65076 -1.319971,-1.31533 -0.207317,-0.22156 -0.43454,-0.4538 -0.505076,-0.51595 -0.241036,-0.21291 -0.280503,-0.31506 -0.14626,-0.38009 0.163158,-0.0785 -0.09467,-0.40524 -0.375645,-0.47532 -0.11975,-0.03 -0.168377,-0.0736 -0.143143,-0.12879 0.02141,-0.0459 0.01802,-0.0616 -0.0072,-0.0338 -0.02441,0.0263 -0.258876,-0.0938 -0.520728,-0.26775 -0.800978,-0.53201 -0.77407,-0.52303 -0.924264,-0.31053 -0.07078,0.10028 -0.126809,0.20427 -0.123692,0.23206 0.0184,0.19977 -0.210097,0.63648 -0.323876,0.6179 -0.928758,-0.15096 -2.515008,1.10691 -3.035945,2.40786 -0.287037,0.71687 -0.501595,1.78703 -0.332586,1.65906 0.03117,-0.0225 0.03864,-0.0774 0.0169,-0.12012 -0.02178,-0.0421 0.01239,-0.15095 0.07386,-0.23995 0.112278,-0.16185 0.112278,-0.16185 0.09245,0.1217 -0.06298,0.89423 0.342837,3.15764 0.506806,2.82617 0.0229,-0.0461 0.01047,-0.13218 -0.02704,-0.18963 z m -0.950078,-0.17611 c 2.3e-4,-0.015 -0.05024,-0.0657 -0.108518,-0.11452 -0.263343,-0.21817 -0.28606,-2.12732 -0.0368,-3.09707 0.363378,-1.41296 1.495204,-2.81002 2.492763,-3.07698 0.08408,-0.0225 0.118887,-0.0263 0.07773,-0.007 -0.103297,0.0466 -0.08565,0.12956 0.03417,0.16335 0.05711,0.015 0.08133,0.002 0.05629,-0.0301 -0.02478,-0.0301 0.0024,-0.0623 0.05978,-0.0679 0.06777,-0.004 0.08749,-0.0413 0.05715,-0.10332 -0.04067,-0.0815 0.02816,-0.0983 0.544801,-0.13031 0.325301,-0.0187 0.589274,-0.0582 0.586782,-0.0826 -0.0049,-0.047 -0.536608,-0.0263 -0.93603,0.0338 -0.625395,0.0988 -1.367994,0.52732 -1.883554,1.08736 -0.156323,0.1701 -0.306263,0.29064 -0.333112,0.26811 -0.02629,-0.0225 -0.03491,-5e-4 -0.01952,0.0477 0.01615,0.0484 -0.01239,0.095 -0.06323,0.10247 -0.05119,0.007 -0.08434,0.0428 -0.0742,0.0778 0.0094,0.0338 -0.02178,0.0672 -0.07164,0.0717 -0.130414,0.011 -0.122904,-0.004 0.199056,-0.41647 0.498681,-0.63997 1.03134,-1.03155 1.800375,-1.32344 0.247008,-0.0938 0.329469,-0.14419 0.222224,-0.13668 -0.573424,0.0416 -1.448693,0.63127 -2.153715,1.45081 -0.24607,0.28613 -0.284559,0.2467 -0.05459,-0.0549 0.244041,-0.32031 0.644906,-0.70783 0.895654,-0.8658 0.113739,-0.0717 0.245394,-0.16785 0.292896,-0.21441 0.12955,-0.12655 0.85869,-0.41611 1.041021,-0.4134 0.08798,0.001 0.227332,0.015 0.309793,0.0301 0.102932,0.015 0.12132,0.011 0.06035,-0.0225 -0.06654,-0.0338 -0.043,-0.0623 0.09046,-0.0942 0.200633,-0.0492 0.34096,-0.0301 0.307164,0.0338 -0.03864,0.0774 0.488256,-0.0495 0.529363,-0.12692 0.0659,-0.1258 0.03864,-0.1581 -0.09312,-0.10965 -0.09606,0.0338 -0.105292,0.0571 -0.03864,0.0901 0.06811,0.0338 0.06275,0.0499 -0.0169,0.0553 -0.05742,0.004 -0.127222,-0.0432 -0.154746,-0.11075 -0.0578,-0.13592 -0.144533,-0.15057 -0.180732,-0.0301 -0.01539,0.0522 -0.04416,0.0609 -0.08126,0.0225 -0.100705,-0.10101 -0.354365,-0.19151 -0.413211,-0.14682 -0.03154,0.0225 -0.121442,0.0263 -0.200295,0.004 -0.114748,-0.0263 -0.07409,-0.0518 0.194175,-0.10661 0.33266,-0.0684 0.330746,-0.0691 -0.133606,-0.0301 -2.441151,0.17836 -4.34131,3.08441 -4.043214,6.18361 0.05846,0.61017 0.17296,0.97392 0.237697,0.75695 0.01314,-0.0454 0.06046,-0.12467 0.103151,-0.17762 0.04352,-0.0526 0.07119,-0.15996 0.06188,-0.23957 -0.04664,-0.39552 0.03718,-1.2795 0.128761,-1.34892 0.02403,-0.0188 0.03117,0.0661 0.01464,0.18849 -0.01577,0.1217 -0.0068,0.23207 0.0199,0.24559 0.02629,0.011 0.06921,-0.22569 0.09474,-0.53059 0.09166,-1.09742 0.934014,-3.18942 1.000744,-2.4853 0.0075,0.08 -0.144832,0.20654 -0.197215,0.16334 -0.02591,-0.0225 -0.0229,0.011 0.0075,0.0729 0.03642,0.0729 0.03154,0.10065 -0.01352,0.0785 -0.03822,-0.0187 -0.102968,0.015 -0.144119,0.0778 -0.06331,0.0951 -0.06219,0.10332 0.0056,0.0529 0.0561,-0.0416 0.07375,-0.0301 0.05764,0.0263 -0.01277,0.0492 -0.05437,0.0856 -0.09204,0.0807 -0.04056,-0.004 -0.04844,0.0338 -0.0199,0.0909 0.03266,0.0661 0.02366,0.0864 -0.02666,0.0612 -0.05122,-0.0225 -0.05926,-0.004 -0.02478,0.0654 0.03417,0.0691 0.02591,0.0902 -0.02478,0.065 -0.05122,-0.0225 -0.05925,-0.004 -0.02553,0.065 0.03417,0.0691 0.02629,0.0905 -0.02478,0.0653 -0.05122,-0.0225 -0.05925,-0.004 -0.02553,0.065 0.03756,0.0755 0.02741,0.0913 -0.03605,0.0598 -0.05816,-0.0263 -0.07078,-0.0187 -0.03605,0.0263 0.05949,0.0781 0.01802,0.3357 -0.0484,0.30228 -0.02478,-0.011 -0.04161,0.0394 -0.03755,0.11233 0.0034,0.074 -0.02404,0.30641 -0.06129,0.51628 -0.188354,1.05791 -0.009,2.78796 0.286061,2.75991 0.03192,-0.001 0.05891,-0.015 0.05756,-0.0301 z m 13.825252,-5.44755 c -0.09582,-0.0958 -0.0229,-0.46766 0.09418,-0.4787 0.0323,-9.7e-4 0.04217,-0.0439 0.01915,-0.0901 -0.04186,-0.0845 0.08468,-0.63303 0.198455,-0.86036 0.03785,-0.0758 0.11111,-0.11452 0.201347,-0.10588 0.363491,0.0338 0.499173,-0.68759 0.183023,-0.97486 -0.152569,-0.13893 -0.139351,-0.22681 0.23319,-1.55448 0.44876,-1.59962 0.493505,-1.73611 0.571325,-1.74427 0.126622,-0.015 0.07769,-0.11598 -0.06662,-0.13968 -0.113666,-0.0187 -0.122416,-0.0338 -0.0585,-0.12012 0.06583,-0.0864 0.0819,-0.0864 0.127371,-7.9e-4 0.02816,0.0544 0.05115,0.0706 0.05133,0.0338 4.55e-4,-0.0338 0.02515,-0.0263 0.05967,0.011 0.06777,0.0875 0.991259,0.6409 1.751853,1.05044 0.471268,0.25684 0.592148,0.35184 0.475135,0.38839 -0.314412,0.0972 -0.422497,0.0544 -0.417477,-0.16485 0.0017,-0.0781 -0.386213,0.047 -0.486675,0.15696 -0.08246,0.0901 -0.105597,0.0954 -0.113033,0.0263 -0.0079,-0.0747 -0.01502,-0.0736 -0.05659,0.007 -0.02778,0.0544 -0.09204,0.0789 -0.15869,0.0605 -0.09804,-0.0263 -0.09985,-0.0187 -0.01577,0.065 0.08716,0.0893 0.08333,0.0913 -0.0502,0.0338 -0.174236,-0.072 -0.191471,0.0301 -0.0199,0.12012 0.101423,0.0522 0.09722,0.059 -0.02666,0.0428 -0.07825,-0.007 -0.124519,0.007 -0.102324,0.0338 0.0718,0.0942 0.180732,0.0428 0.306978,-0.14458 0.06777,-0.10137 0.127634,-0.1502 0.132929,-0.10928 0.0056,0.0425 -0.150916,0.29477 -0.34588,0.56506 -0.371001,0.51219 -0.428164,0.68279 -0.113361,0.33833 0.531951,-0.58244 0.645568,-0.27599 0.142018,0.38366 -0.162483,0.21292 -0.311859,0.41065 -0.331649,0.43949 -0.02027,0.0263 -0.03154,-0.0338 -0.02629,-0.13856 0.0101,-0.19638 -0.05587,-0.2377 -0.166537,-0.10369 -0.03417,0.0416 -0.124894,0.11452 -0.200709,0.16109 -0.151555,0.0938 -0.189818,0.36012 -0.07574,0.52526 0.112619,0.16335 -1.101755,1.83819 -1.41257,1.94818 -0.19256,0.0684 -0.233302,0.17348 -0.0982,0.25383 0.101277,0.0612 0.102883,0.0709 0.01539,0.11379 -0.126996,0.063 -0.120237,0.0639 -0.21922,-0.0338 z m 7.674688,-0.79435 c -0.02854,-0.0225 -0.06248,-0.16184 -0.07616,-0.30792 -0.0139,-0.14532 -0.08228,-0.45162 -0.15223,-0.67974 -0.19196,-0.62596 -0.302772,-1.20436 -0.223352,-1.16508 0.04033,0.0187 0.04991,-0.015 0.02404,-0.0841 -0.07578,-0.20727 0.517621,-1.57306 0.647505,-1.49023 0.09361,0.0616 0.09485,0.0578 0.01277,-0.0301 -0.08408,-0.0882 -0.05065,-0.1825 0.287075,-0.81001 0.497238,-0.92356 0.554687,-1.21345 0.277424,-1.3955 -0.19992,-0.12954 -0.19992,-0.12954 0.261616,-0.0495 0.253505,0.045 0.517152,0.0762 0.585742,0.0699 0.175887,-0.015 0.1674,0.0109 -0.154485,0.54141 -0.815766,1.33818 -1.511992,2.84691 -1.368672,2.96549 0.0139,0.0109 0.310431,-0.19188 0.659524,-0.45162 0.63475,-0.4722 0.63475,-0.4722 1.210582,-0.36876 0.316627,0.0567 0.855566,0.13932 1.19745,0.18288 0.855536,0.10928 0.885422,0.1333 0.617584,0.49278 -0.207016,0.27787 -0.224853,0.288 -0.509164,0.28125 -0.294698,-0.007 -0.294698,-0.007 -0.219183,0.1855 0.110173,0.28126 0.104197,0.33908 -0.03304,0.31655 -0.08453,-0.0109 -0.153471,-0.11038 -0.221324,-0.30904 -0.149677,-0.43671 -1.770113,-0.68582 -2.257003,-0.34659 -0.166724,0.11646 -0.347193,0.21516 -0.401086,0.22042 -0.06572,0.007 -0.101946,0.0868 -0.109832,0.24558 -0.01502,0.29928 -0.0229,1.47589 -0.01168,1.79184 0.0045,0.13218 -0.01502,0.2208 -0.04265,0.19714 z m -10.402373,-2.54812 c -0.08551,-0.11269 -0.0614,-0.5871 0.03304,-0.6391 0.05538,-0.0301 -0.01314,-0.0567 -0.178478,-0.0699 -0.169128,-0.0109 -0.271116,-0.0533 -0.277162,-0.1077 -0.0045,-0.0488 -0.03455,-0.0691 -0.06556,-0.0473 -0.03154,0.0225 -0.06267,0.007 -0.0706,-0.0338 -0.0079,-0.0443 -0.03004,-0.0225 -0.05355,0.0484 -0.04006,0.12505 -0.04217,0.12468 -0.05907,-0.004 -0.01577,-0.12843 0.0052,-0.13556 0.480938,-0.16597 0.273894,-0.0187 0.497002,-0.0425 0.49583,-0.0553 -0.0045,-0.0477 -0.611704,-0.76244 -1.281515,-1.5089 -0.838867,-0.93475 -1.477052,-1.71554 -2.220604,-2.71667 -1.094453,-1.47369 -1.208606,-1.55585 -2.300367,-1.65588 -0.767047,-0.0702 -0.968739,-0.0702 -1.075207,5.2e-4 -0.07697,0.0508 -0.227369,0.0796 -0.364692,0.0702 -0.197253,-0.015 -0.254331,0.007 -0.367359,0.15583 -0.07334,0.0947 -0.179454,0.1765 -0.235404,0.18212 -0.05639,0.007 -0.174011,0.10101 -0.262518,0.21293 -0.08963,0.11342 -0.225567,0.20952 -0.307089,0.21665 -0.131464,0.011 -0.140702,0.0338 -0.09004,0.21217 0.08014,0.28238 -0.162481,0.54937 -1.245117,1.37045 -0.595043,0.45124 -0.814353,0.32706 -0.993402,-0.56168 -0.05583,-0.27713 0.148588,-0.68756 0.352825,-0.70828 0.02629,-0.004 0.04363,-0.0338 0.04037,-0.0733 -0.0038,-0.0394 -0.054,-0.0458 -0.111037,-0.0225 -0.06921,0.0301 -0.05684,-0.002 0.03417,-0.0947 0.115285,-0.11792 0.123016,-0.15133 0.04458,-0.19114 -0.06552,-0.0301 -0.0049,-0.0571 0.194475,-0.0765 0.172582,-0.015 0.299354,-0.0612 0.313736,-0.10928 0.01915,-0.0643 0.0368,-0.0657 0.0872,-0.007 0.04676,0.0553 0.125419,10e-4 0.308854,-0.20954 0.199508,-0.22944 0.218246,-0.27112 0.09989,-0.22267 -0.08017,0.0301 -0.170067,0.0871 -0.199469,0.12011 -0.02929,0.0338 -0.103942,0.0654 -0.165411,0.0713 -0.06233,0.007 -0.109041,0.0394 -0.105853,0.0725 0.0038,0.0301 -0.02178,0.0646 -0.05414,0.068 -0.03192,0.001 -0.04705,-0.0421 -0.03041,-0.10174 0.02403,-0.086 0.0072,-0.0958 -0.08482,-0.0477 -0.330559,0.17272 -1.337363,0.15095 -1.191249,-0.0225 0.01765,-0.0225 0.106911,-0.007 0.198717,0.0301 0.179681,0.0747 0.298528,-0.0225 0.219747,-0.18136 -0.04397,-0.0882 0.154559,-0.16711 0.506866,-0.20204 0.192786,-0.0187 0.261353,-0.0506 0.254782,-0.11865 -0.0049,-0.0508 0.01239,-0.0958 0.03756,-0.0996 0.147838,-0.0187 0.26218,-0.21028 0.177015,-0.2944 -0.05062,-0.0484 -0.06057,-0.0905 -0.02515,-0.0935 0.03342,-4.2e-4 0.08284,0.0338 0.107361,0.0819 0.02404,0.0526 0.08336,0.0699 0.135783,0.0432 0.05025,-0.0225 0.09512,-0.0109 0.09797,0.0263 0.003,0.0413 0.03605,0.0495 0.07049,0.0225 0.0816,-0.0616 -0.127898,-0.18098 -0.466981,-0.26323 -0.298715,-0.0747 -0.384477,0.13857 -0.09057,0.22531 0.07976,0.0225 0.113666,0.0454 0.07232,0.0553 -0.172056,0.0263 -0.276598,-0.0545 -0.292594,-0.22568 -0.02854,-0.29777 0.291693,-0.27937 0.86938,0.0492 0.560294,0.32031 0.588646,0.32182 0.529048,0.0432 -0.05527,-0.25873 -0.0671,-0.26586 -0.439601,-0.26247 -0.387276,0.004 -0.52215,-0.10028 -0.177277,-0.13745 0.141153,-0.015 0.40406,0.0225 0.592695,0.0886 0.498299,0.17086 3.010927,0.22718 2.995797,0.0672 -0.0028,-0.0263 -0.130713,-0.16897 -0.284596,-0.31393 -0.153883,-0.14456 -0.265859,-0.29139 -0.248924,-0.32556 0.01765,-0.0338 -0.0038,-0.0792 -0.04618,-0.10028 -0.04802,-0.0225 -0.05783,-0.0109 -0.02591,0.0301 0.09107,0.1206 -0.01952,0.0796 -0.436695,-0.16221 -0.223728,-0.13331 -0.568747,-0.276 -0.762223,-0.32557 -0.76778,-0.19263 -1.395473,-0.45023 -1.522507,-0.6254 -0.06849,-0.0942 -0.230036,-0.28615 -0.35906,-0.42501 -0.234204,-0.25309 -0.234204,-0.25309 0.489315,0.007 0.39782,0.14383 1.056001,0.3511 1.462359,0.46079 1.286903,0.34735 1.3137,0.64276 0.03785,0.4348 -0.259099,-0.0421 -0.479544,-0.0668 -0.490272,-0.054 -0.04352,0.0526 0.816397,0.2054 1.179467,0.2099 0.390669,0.004 0.390669,0.004 0.683302,0.43574 0.325526,0.47915 0.354554,0.54868 0.183848,0.43927 -0.105633,-0.068 -0.106229,-0.0684 -0.02141,0.0225 0.05272,0.054 0.117158,0.083 0.144533,0.0616 0.06928,-0.0526 0.207092,0.17423 0.175436,0.28801 -0.01426,0.0526 0.0049,0.11038 0.04285,0.1288 0.04217,0.0187 0.05096,-3e-4 0.02366,-0.0582 -0.09301,-0.18738 0.0229,-0.0909 0.21678,0.17987 0.207881,0.29064 1.861061,1.69346 1.916516,1.62639 0.01765,-0.0225 -0.04856,-0.12504 -0.146373,-0.23055 -0.7381,-0.79863 -1.51698,-2.02999 -1.297162,-2.05084 0.100936,-0.007 0.126434,0.015 0.110623,0.11488 -0.01168,0.0702 0.0022,0.11038 0.03003,0.0886 0.02778,-0.0187 0.122227,0.0767 0.210622,0.2148 0.476987,0.7554 1.194502,1.65781 0.99302,1.24897 -0.03977,-0.0807 -0.05517,-0.16974 -0.03417,-0.19827 0.02178,-0.0263 0.009,-0.0301 -0.02629,-0.004 -0.03605,0.0263 -0.12042,-0.0447 -0.187641,-0.16184 -0.153057,-0.2561 -0.166913,-0.35486 -0.0184,-0.13406 0.107167,0.15959 0.25617,0.20128 0.312421,0.0871 0.01577,-0.0301 -0.0169,-0.0488 -0.07195,-0.0398 -0.06132,0.0109 -0.133306,-0.0511 -0.180695,-0.16222 -0.04416,-0.0992 -0.103832,-0.19264 -0.132779,-0.20803 -0.02929,-0.015 -0.03041,-0.0717 -0.0038,-0.12505 0.04105,-0.0807 0.05074,-0.0785 0.06151,0.015 0.0068,0.0661 0.03823,0.092 0.07706,0.0619 0.04401,-0.0338 0.05652,-0.002 0.03718,0.1021 -0.02253,0.12242 -0.01577,0.13255 0.0338,0.0529 0.04987,-0.0792 0.05861,-0.0612 0.0428,0.0898 -0.01765,0.17498 -0.01352,0.18024 0.05978,0.0661 0.13462,-0.21028 -0.53276,-0.99463 -0.921185,-1.08325 -0.206679,-0.0473 -0.230862,-0.0695 -0.255194,-0.23883 -0.0068,-0.0432 -0.08156,-0.15733 -0.167176,-0.25647 -0.08592,-0.0983 -0.215804,-0.34397 -0.288878,-0.54542 -0.162632,-0.44829 -0.164096,-0.46102 -0.04878,-0.42854 0.0605,0.0109 0.07931,-0.004 0.05445,-0.0522 -0.09114,-0.18361 0.970085,-0.31467 1.289413,-0.1592 0.215991,0.10247 0.215991,0.10247 -0.06334,0.14006 -0.21817,0.0263 -0.176751,0.0338 0.191996,0.0432 0.258613,0.004 0.64291,0.0439 0.853644,0.0875 0.42536,0.0879 0.412314,0.063 0.412847,0.78023 1.55e-4,0.27449 1.55e-4,0.27449 0.320946,0.35335 0.838859,0.2069 1.318998,0.43247 2.219557,1.03945 0.912628,0.61541 0.912628,0.61541 1.75124,0.61969 1.181153,0.007 1.975189,0.0942 1.367285,0.1517 -0.100304,0.007 -0.04491,0.2884 0.123091,0.61933 0.183735,0.36199 0.171568,0.39312 -0.278289,0.71015 -0.362926,0.2561 -0.517058,0.28088 -0.956869,0.15359 -0.47448,-0.13706 -1.205276,-0.0533 -2.276801,0.2606 -0.964514,0.28275 -0.974965,0.29064 -0.583691,0.44906 0.152456,0.0612 0.585306,0.24446 0.962206,0.40668 2.5303,1.08716 2.104468,1.05544 3.630749,0.27901 0.67438,-0.34284 1.268188,-0.61133 1.319509,-0.59696 0.05193,0.011 0.08408,-10e-4 0.07258,-0.0338 -0.02704,-0.0803 1.615209,-0.8919 2.049734,-1.01266 0.184674,-0.0518 0.45528,-0.1206 0.601265,-0.15396 0.180881,-0.0413 0.275735,-0.0988 0.297064,-0.17911 0.03567,-0.13406 0.358646,-0.0503 0.47886,0.12391 0.06256,0.0902 0.227558,-0.0394 0.215354,-0.16784 -0.01239,-0.12956 -0.266385,-0.25047 -0.405769,-0.19152 -0.07713,0.0301 -0.126997,0.0454 -0.111414,0.0301 0.196052,-0.19263 0.215203,-0.19827 0.373403,-0.0961 0.08689,0.0582 0.173673,0.10283 0.191284,0.10247 0.01802,4.1e-4 0.08671,0.0187 0.156211,0.0338 0.07702,0.0225 0.131503,0.004 0.142242,-0.0405 0.0097,-0.0413 0.05978,-0.0796 0.111719,-0.0845 0.139126,-0.011 0.912084,-0.53115 0.871916,-0.58429 -0.01802,-0.0263 0.03455,-0.0699 0.119069,-0.0999 0.08437,-0.0301 0.134056,-0.0799 0.110441,-0.11111 -0.04642,-0.0598 0.216517,-0.21516 0.3428,-0.20202 0.04157,0.004 0.07904,-0.0563 0.08374,-0.13481 0.0049,-0.0785 0.03605,-0.12917 0.06936,-0.11184 0.100717,0.0492 0.05753,-0.0857 -0.0573,-0.18099 -0.136309,-0.11452 -0.247721,-0.10551 -0.189255,0.015 0.02816,0.0544 0.01878,0.0796 -0.02178,0.0589 -0.03756,-0.0187 -0.103711,0.002 -0.147237,0.0462 -0.06556,0.0657 -0.07427,0.0488 -0.04946,-0.0999 0.0419,-0.2531 0.276749,-0.29177 0.564679,-0.0927 0.222151,0.1547 0.222151,0.1547 0.09447,-0.004 -0.0706,-0.0879 -0.196051,-0.17085 -0.278888,-0.18361 -0.08344,-0.011 -0.153019,-0.0526 -0.157038,-0.0848 -0.01168,-0.12278 0.346894,-0.007 0.595187,0.19152 0.216555,0.17348 0.256096,0.18662 0.282869,0.0905 0.0169,-0.0612 0.06763,-0.10101 0.112802,-0.0882 0.115467,0.0301 0.0641,-0.12504 -0.08644,-0.26248 -0.09628,-0.0893 -0.145358,-0.0972 -0.204087,-0.0394 -0.05576,0.0556 -0.101569,0.0609 -0.164172,0.0187 -0.04754,-0.0301 -0.149414,-0.0338 -0.226093,-0.007 -0.259888,0.0954 -0.03567,-0.19639 0.342199,-0.44366 0.377934,-0.24746 0.399221,-0.2576 0.406146,-0.18325 0.0024,0.0263 -0.08441,0.0916 -0.192823,0.14269 -0.317041,0.14983 -0.444341,0.28952 -0.323575,0.35486 0.135558,0.0725 0.194476,0.0605 0.184636,-0.0338 -0.02328,-0.24446 0.53933,-0.43972 0.939808,-0.3267 0.324288,0.0916 0.335853,0.0924 0.396295,0.0187 0.03154,-0.0394 0.03864,-0.11111 0.01427,-0.16034 -0.03417,-0.0699 -0.01239,-0.0826 0.100863,-0.0578 0.189407,0.0409 0.138487,-0.089 -0.08084,-0.2054 -0.0872,-0.0461 -0.136384,-0.0529 -0.108336,-0.015 0.03117,0.0425 -0.01915,0.0996 -0.133867,0.15169 -0.101423,0.0466 -0.166011,0.10929 -0.143219,0.13932 0.0229,0.0263 -0.01577,0.0458 -0.0861,0.0338 -0.06901,-0.011 -0.129587,-0.0402 -0.131728,-0.0654 -0.0029,-0.0225 -0.125832,-0.0691 -0.27472,-0.0972 -0.269727,-0.0537 -0.269727,-0.0537 -0.137849,-0.18287 0.0852,-0.0834 0.115576,-0.16785 0.08581,-0.23845 -0.03342,-0.0781 0.0045,-0.1457 0.132365,-0.2392 0.202774,-0.14757 0.42121,-0.1348 0.317266,0.0187 -0.04833,0.0713 -0.03493,0.0958 0.06147,0.11148 0.128647,0.0187 0.113069,-0.0905 -0.03493,-0.24821 -0.04641,-0.0461 -0.04318,-0.074 0.0068,-0.0792 0.04619,-0.002 0.05434,-0.0564 0.02065,-0.14269 -0.03455,-0.0893 0.123542,0.0109 0.461967,0.29251 0.283245,0.23583 0.513844,0.41663 0.512586,0.40131 -0.0086,-0.0909 -0.212387,-0.32556 -0.517704,-0.59609 -0.193198,-0.17085 -0.307128,-0.2805 -0.253804,-0.2422 0.05227,0.0402 0.132102,0.0653 0.173896,0.063 0.04273,-0.004 0.16143,0.0567 0.263756,0.13518 0.182909,0.1397 0.186552,0.14082 0.221361,0.011 0.01915,-0.0725 0.07829,-0.13594 0.130302,-0.1412 0.122077,-0.0109 0.113933,-0.11147 -0.0101,-0.14719 -0.157789,-0.0413 -0.127223,-0.2054 0.05915,-0.32519 0.211148,-0.13594 0.540111,-0.0627 0.339835,0.0758 -0.02478,0.0187 -0.01314,0.0187 0.02629,0.004 0.102324,-0.0338 0.166049,0.30304 0.08358,0.44164 -0.102737,0.17235 -0.07029,0.34584 0.06215,0.3327 0.06233,-0.007 0.148437,0.0187 0.193837,0.0556 0.05504,0.0463 0.07972,0.045 0.07555,-9.3e-4 -0.01502,-0.15809 0.409978,-0.38286 0.590278,-0.31205 0.341036,0.1318 0.662717,0.33308 0.671237,0.41622 0.0049,0.047 0.0807,0.25121 0.168865,0.45372 0.296501,0.68308 0.648568,1.62951 0.624378,1.67843 -0.08937,0.18063 -1.562116,0.565 -1.706867,0.44532 -0.06177,-0.0495 -0.147686,-0.0893 -0.193911,-0.0823 -0.04412,0.004 -0.132065,-0.0504 -0.193837,-0.12241 -0.0617,-0.0717 -0.09496,-0.089 -0.0733,-0.0394 0.03192,0.0736 -0.01277,0.0916 -0.233865,0.095 -0.259739,0.004 -0.351362,0.0414 -1.126556,0.44942 -0.183547,0.0969 -0.259963,0.10369 -0.618493,0.0551 -0.415186,-0.0563 -0.757754,0.13556 -1.075974,0.60243 -0.07139,0.10478 -0.171005,0.1348 -0.178853,0.0549 -0.0075,-0.0799 0.714739,-0.75795 0.932266,-0.87486 0.285687,-0.1532 0.764424,-0.35072 1.025183,-0.42168 0.124743,-0.0338 0.293308,-0.13631 0.374231,-0.22718 0.08107,-0.0909 0.174948,-0.15134 0.20848,-0.13481 0.03342,0.015 0.05749,0.004 0.05513,-0.0338 -0.003,-0.0338 0.02404,-0.0691 0.06158,-0.0722 0.08983,-0.007 0.349972,-0.25834 0.306526,-0.29402 -0.01727,-0.0187 0.04507,-0.0225 0.141303,-0.015 0.135333,0.007 0.152682,-10e-4 0.07619,-0.0447 -0.05437,-0.0301 -0.103078,-0.0931 -0.109503,-0.13556 -0.0075,-0.0436 -0.04998,-0.0657 -0.09883,-0.0484 -0.04784,0.015 -0.19838,0.0563 -0.333187,0.0879 -0.134732,0.0301 -0.322823,0.12767 -0.418213,0.21366 -0.09545,0.086 -0.441022,0.30267 -0.768505,0.48208 -0.327405,0.1795 -0.662474,0.3817 -0.744555,0.44982 -0.123429,0.10211 -0.193161,0.11683 -0.404082,0.0845 -0.242992,-0.0394 -0.280542,-0.0187 -0.807832,0.35148 -0.304236,0.21516 -0.605682,0.41618 -0.670152,0.44711 -0.109346,0.0529 -0.103529,0.0654 0.0805,0.18888 0.227745,0.15284 0.424217,0.17913 0.282343,0.0338 -0.146072,-0.14532 -0.01314,-0.10247 0.160041,0.0518 0.161393,0.14419 0.163345,0.14419 0.219333,0.011 0.03041,-0.0747 0.08802,-0.13781 0.126096,-0.14156 0.03785,-0.002 0.02478,0.0529 -0.03192,0.12841 -0.168039,0.22531 0.0094,0.4644 0.290042,0.39118 0.336228,-0.0879 0.256358,0.007 -0.261992,0.31505 -0.452028,0.26735 -0.499289,0.28275 -0.774906,0.2467 -0.264846,-0.0338 -1.625359,-0.1021 -1.772134,-0.0882 -0.153319,0.015 -0.05043,-0.17198 0.1757,-0.31805 0.283807,-0.18362 0.07267,-0.12355 -0.289741,0.0819 -0.130715,0.074 -0.334014,0.16033 -0.451645,0.1915 -0.236832,0.0623 -0.25786,0.0778 0.366157,-0.26661 0.355942,-0.19639 0.352037,-0.26661 -0.01277,-0.23169 -0.216517,0.0187 -0.503886,0.1487 -1.186793,0.52849 -0.495609,0.27563 -1.115496,0.61812 -1.377555,0.76074 -0.262179,0.14269 -0.583151,0.32293 -0.713564,0.40041 -0.130338,0.0774 -0.425525,0.23469 -0.6558,0.34922 -0.378684,0.1885 -0.475693,0.28012 -1.016621,0.96013 -0.47906,0.60238 -0.615021,0.73798 -0.683528,0.68196 -0.06995,-0.054 -0.06451,-0.0886 0.02141,-0.16523 0.06779,-0.0601 0.09775,-0.16672 0.08302,-0.28989 -0.01539,-0.12354 0.006,-0.19788 0.05809,-0.20278 0.0697,-0.007 0.145809,-0.14044 0.136572,-0.23694 -0.006,-0.0609 -0.27044,0.007 -0.431086,0.11038 -0.173671,0.11184 -0.238935,0.21967 -0.08757,0.14456 0.04401,-0.0187 0.08329,-0.004 0.08768,0.0413 0.0063,0.0634 -0.02666,0.0691 -0.150541,0.0263 -0.124856,-0.047 -0.170705,-0.0338 -0.220122,0.0461 -0.03493,0.0582 -0.17844,0.11829 -0.335215,0.14193 -0.314637,0.0473 -0.390865,0.0898 -0.323499,0.17912 0.03154,0.0428 0.01653,0.0484 -0.04431,0.015 -0.210246,-0.10478 -0.248097,-0.0447 -0.06822,0.10733 0.106084,0.0905 0.230711,0.15884 0.273782,0.15884 0.04483,-0.004 0.06601,0.0225 0.04494,0.0672 -0.02328,0.047 0.0032,0.0574 0.07803,0.0263 0.06222,-0.0225 0.265408,-0.0729 0.451558,-0.10856 0.348621,-0.0661 0.248323,-0.0187 -0.347607,0.15697 -0.0805,0.0225 -0.159439,0.11488 -0.187077,0.21516 -0.02629,0.0954 -0.07375,0.19377 -0.105439,0.21743 -0.03455,0.0263 -0.01426,0.0729 0.04761,0.11524 0.08929,0.0639 0.09823,0.0548 0.05081,-0.0417 -0.05279,-0.11074 -0.05058,-0.11074 0.09184,-0.007 0.191997,0.13932 0.199995,0.2989 0.02553,0.52293 -0.12572,0.16147 -0.151968,0.17273 -0.226168,0.0924 -0.04581,-0.0503 -0.165449,-0.13329 -0.265033,-0.18587 -0.09959,-0.0526 -0.184148,-0.1348 -0.189406,-0.18062 -0.0045,-0.0473 -0.03642,-0.0834 -0.06991,-0.0803 -0.078,0.007 -0.07431,0.0477 0.0169,0.1855 0.09606,0.14495 -0.639947,0.52465 -0.745776,0.38482 z m 19.673486,-3.20938 c -0.516446,0.001 -1.094136,0.002 -1.283696,0.001 -0.232664,-0.001 -0.302546,0.011 -0.215203,0.0425 0.191434,0.0679 0.09508,0.0664 -0.387043,0.007 -0.993745,-0.12767 -1.015337,-0.13744 -1.766627,-0.78786 -0.505226,-0.43701 -0.689998,-0.5657 -0.673281,-0.46919 0.01314,0.0733 0.041,0.11975 0.06327,0.10296 0.03493,-0.0263 0.463247,0.33307 0.46912,0.39438 8.79e-4,0.011 -0.134582,-0.007 -0.301456,-0.0432 -0.300256,-0.0653 -0.303861,-0.0695 -0.320008,-0.32407 -0.02103,-0.31993 -0.208105,-0.3173 2.055927,-0.0263 3.029544,0.3876 5.916515,0.53667 5.618273,0.29026 -0.02253,-0.0187 -2.111228,-0.57903 -2.14731,-0.57561 -0.0068,3.4e-4 -0.175887,-0.17386 -0.377264,-0.38677 -0.201159,-0.21329 -0.550531,-0.54607 -0.776382,-0.739 -0.422566,-0.36123 -0.52259,-0.54539 -0.139089,-0.25648 0.119033,0.0882 0.215504,0.14233 0.214791,0.11975 -6.5e-5,-0.0225 0.03826,0.0225 0.08561,0.10479 0.08385,0.14532 0.08572,0.14344 0.08561,-0.0868 -2.97e-4,-0.26549 -0.01277,-0.25872 0.314749,-0.19264 0.174686,0.0338 0.264283,0.0965 0.318919,0.21255 0.05981,0.12992 0.165523,0.18849 0.515405,0.28388 0.24209,0.0657 0.526927,0.14456 0.633083,0.17461 0.10511,0.0301 0.263643,0.0549 0.349784,0.0556 0.527294,0.004 1.54248,0.56296 1.379688,0.7598 -0.03826,0.0454 0.01314,0.0755 0.151779,0.092 0.640149,0.0646 1.289828,0.35448 0.883057,0.39391 -0.07465,0.007 -0.713173,0.16748 -1.418634,0.35598 -1.54674,0.41328 -2.106515,0.49762 -3.334242,0.50232 z m 2.605357,-3.23788 c -0.160417,-0.056 -1.069084,-0.29139 -2.019401,-0.52297 -2.016501,-0.49101 -1.770462,-0.34471 -2.390834,-1.42385 -0.272129,-0.47373 -0.521578,-0.90083 -0.554089,-0.94946 -0.07094,-0.10661 -0.15869,-0.14233 -1.115477,-0.46319 -0.77769,-0.26061 -0.993542,-0.37325 -0.884608,-0.46059 0.267924,-0.21592 0.382784,-0.37177 0.315463,-0.42764 -0.145284,-0.11975 -1.050656,-0.10733 -1.513784,0.0225 -0.379867,0.10551 -0.609658,0.23658 -0.422899,0.24108 0.122715,0.002 0.160792,0.0109 0.310318,0.0778 0.08284,0.0338 0.135484,0.0924 0.117755,0.12768 -0.01727,0.0338 0.01352,0.0578 0.06721,0.0526 0.05291,-0.004 0.270291,0.10405 0.480485,0.24408 0.520249,0.34283 0.555186,0.37551 0.29113,0.26736 -0.125007,-0.0515 -0.293158,-0.14871 -0.374306,-0.21517 -0.08032,-0.0684 -0.158801,-0.10855 -0.174873,-0.089 -0.01615,0.0187 -0.139651,-0.0544 -0.273143,-0.16748 -0.135333,-0.10965 -0.243066,-0.18549 -0.241301,-0.16446 0.0029,0.0187 -0.08344,-0.011 -0.188354,-0.0747 -0.135709,-0.0789 -0.29008,-0.10211 -0.524363,-0.0811 -0.575193,0.0506 -1.849753,-0.52103 -2.019509,-0.90817 -0.102323,-0.23319 0.0733,-0.78871 0.2128,-0.67332 0.116709,0.0958 0.33882,0.0394 0.562912,-0.1472 0.214376,-0.17762 0.214376,-0.17762 0.0063,-0.12654 -0.175624,0.0428 -0.165862,0.03 0.06282,-0.0691 1.038604,-0.45961 1.951903,-0.33833 3.234672,0.43015 0.66005,0.39538 0.883541,0.59863 0.769706,0.69961 -0.08547,0.0758 -0.07829,0.0811 0.05742,0.0428 0.131878,-0.0394 0.212912,0.011 0.526355,0.31619 0.203751,0.19864 0.423455,0.39879 0.48832,0.44425 0.07086,0.0499 0.158013,0.23808 0.218283,0.47254 0.414851,1.61269 1.325727,2.45601 3.14871,2.91525 1.52107,0.38328 2.199126,0.59571 2.208251,0.69202 0.0037,0.0462 -0.08302,0.0263 -0.383058,-0.0781 z"
           id="path17624" /></g></g></g></svg>
